<mxfile host="65bd71144e">
    <diagram id="C5RBs43oDa-KdzZeNtuy" name="Page-1">
        <mxGraphModel dx="1076" dy="779" grid="1" gridSize="10" guides="1" tooltips="1" connect="1" arrows="1" fold="1" page="1" pageScale="1" pageWidth="1169" pageHeight="827" math="0" shadow="0">
            <root>
                <mxCell id="WIyWlLk6GJQsqaUBKTNV-0"/>
                <mxCell id="WIyWlLk6GJQsqaUBKTNV-1" parent="WIyWlLk6GJQsqaUBKTNV-0"/>
                <mxCell id="bkBwzWGdvT6vBUZLJ9nT-39" style="edgeStyle=orthogonalEdgeStyle;rounded=0;orthogonalLoop=1;jettySize=auto;html=1;exitX=0.5;exitY=1;exitDx=0;exitDy=0;exitPerimeter=0;entryX=0.5;entryY=0;entryDx=0;entryDy=0;strokeWidth=2;" parent="WIyWlLk6GJQsqaUBKTNV-1" source="bkBwzWGdvT6vBUZLJ9nT-7" target="bkBwzWGdvT6vBUZLJ9nT-36" edge="1">
                    <mxGeometry relative="1" as="geometry"/>
                </mxCell>
                <mxCell id="bkBwzWGdvT6vBUZLJ9nT-7" value="&lt;font face=&quot;Times New Roman&quot; style=&quot;font-size: 48px;&quot;&gt;Start&lt;/font&gt;" style="strokeWidth=2;html=1;shape=mxgraph.flowchart.terminator;whiteSpace=wrap;" parent="WIyWlLk6GJQsqaUBKTNV-1" vertex="1">
                    <mxGeometry x="1770" y="270" width="120" height="70" as="geometry"/>
                </mxCell>
                <mxCell id="bkBwzWGdvT6vBUZLJ9nT-43" style="edgeStyle=orthogonalEdgeStyle;rounded=0;orthogonalLoop=1;jettySize=auto;html=1;exitX=0.5;exitY=1;exitDx=0;exitDy=0;entryX=0.5;entryY=0;entryDx=0;entryDy=0;strokeWidth=2;" parent="WIyWlLk6GJQsqaUBKTNV-1" source="bkBwzWGdvT6vBUZLJ9nT-14" target="bkBwzWGdvT6vBUZLJ9nT-37" edge="1">
                    <mxGeometry relative="1" as="geometry"/>
                </mxCell>
                <mxCell id="bkBwzWGdvT6vBUZLJ9nT-14" value="&lt;font style=&quot;font-size: 48px;&quot; face=&quot;Times New Roman&quot;&gt;Select and execute a coroutine&lt;/font&gt;" style="whiteSpace=wrap;html=1;strokeWidth=2;" parent="WIyWlLk6GJQsqaUBKTNV-1" vertex="1">
                    <mxGeometry x="1287.5" y="520.13" width="370" height="110.5" as="geometry"/>
                </mxCell>
                <mxCell id="bkBwzWGdvT6vBUZLJ9nT-65" style="edgeStyle=orthogonalEdgeStyle;rounded=0;orthogonalLoop=1;jettySize=auto;html=1;exitX=0.5;exitY=1;exitDx=0;exitDy=0;entryX=0.5;entryY=0;entryDx=0;entryDy=0;strokeWidth=2;" parent="WIyWlLk6GJQsqaUBKTNV-1" source="bkBwzWGdvT6vBUZLJ9nT-22" target="bkBwzWGdvT6vBUZLJ9nT-38" edge="1">
                    <mxGeometry relative="1" as="geometry"/>
                </mxCell>
                <mxCell id="bkBwzWGdvT6vBUZLJ9nT-22" value="&lt;font style=&quot;font-size: 48px;&quot; face=&quot;Times New Roman&quot;&gt;Delete coroutine&lt;/font&gt;" style="whiteSpace=wrap;html=1;strokeWidth=2;" parent="WIyWlLk6GJQsqaUBKTNV-1" vertex="1">
                    <mxGeometry x="1287.5" y="912" width="370" height="110.5" as="geometry"/>
                </mxCell>
                <mxCell id="bkBwzWGdvT6vBUZLJ9nT-60" style="edgeStyle=orthogonalEdgeStyle;rounded=0;orthogonalLoop=1;jettySize=auto;html=1;exitX=0.5;exitY=1;exitDx=0;exitDy=0;entryX=0.5;entryY=0;entryDx=0;entryDy=0;entryPerimeter=0;strokeWidth=2;" parent="WIyWlLk6GJQsqaUBKTNV-1" source="bkBwzWGdvT6vBUZLJ9nT-29" target="bkBwzWGdvT6vBUZLJ9nT-49" edge="1">
                    <mxGeometry relative="1" as="geometry"/>
                </mxCell>
                <mxCell id="bkBwzWGdvT6vBUZLJ9nT-29" value="&lt;font style=&quot;font-size: 48px;&quot; face=&quot;Times New Roman&quot;&gt;Yield&lt;/font&gt;" style="whiteSpace=wrap;html=1;strokeWidth=2;" parent="WIyWlLk6GJQsqaUBKTNV-1" vertex="1">
                    <mxGeometry x="1731.25" y="1380" width="197.5" height="60" as="geometry"/>
                </mxCell>
                <mxCell id="bkBwzWGdvT6vBUZLJ9nT-78" style="edgeStyle=orthogonalEdgeStyle;rounded=0;orthogonalLoop=1;jettySize=auto;html=1;exitX=0.5;exitY=1;exitDx=0;exitDy=0;entryX=0.5;entryY=0;entryDx=0;entryDy=0;strokeWidth=2;" parent="WIyWlLk6GJQsqaUBKTNV-1" source="bkBwzWGdvT6vBUZLJ9nT-34" target="bkBwzWGdvT6vBUZLJ9nT-29" edge="1">
                    <mxGeometry relative="1" as="geometry">
                        <Array as="points">
                            <mxPoint x="2113" y="1320"/>
                            <mxPoint x="1830" y="1320"/>
                        </Array>
                    </mxGeometry>
                </mxCell>
                <mxCell id="bkBwzWGdvT6vBUZLJ9nT-88" value="&lt;font style=&quot;font-size: 48px;&quot; face=&quot;Times New Roman&quot;&gt;Yes&lt;/font&gt;" style="edgeLabel;html=1;align=center;verticalAlign=middle;resizable=0;points=[];labelBackgroundColor=none;" parent="bkBwzWGdvT6vBUZLJ9nT-78" vertex="1" connectable="0">
                    <mxGeometry x="-0.8104" y="10" relative="1" as="geometry">
                        <mxPoint x="28" y="1" as="offset"/>
                    </mxGeometry>
                </mxCell>
                <mxCell id="bkBwzWGdvT6vBUZLJ9nT-79" style="edgeStyle=orthogonalEdgeStyle;rounded=0;orthogonalLoop=1;jettySize=auto;html=1;exitX=1;exitY=0.5;exitDx=0;exitDy=0;entryX=0.5;entryY=0;entryDx=0;entryDy=0;entryPerimeter=0;strokeWidth=2;" parent="WIyWlLk6GJQsqaUBKTNV-1" source="bkBwzWGdvT6vBUZLJ9nT-34" target="bkBwzWGdvT6vBUZLJ9nT-49" edge="1">
                    <mxGeometry relative="1" as="geometry">
                        <Array as="points">
                            <mxPoint x="2375" y="1126"/>
                            <mxPoint x="2375" y="1500"/>
                            <mxPoint x="1830" y="1500"/>
                        </Array>
                    </mxGeometry>
                </mxCell>
                <mxCell id="bkBwzWGdvT6vBUZLJ9nT-87" value="&lt;font style=&quot;font-size: 48px;&quot; face=&quot;Times New Roman&quot;&gt;No&lt;/font&gt;" style="edgeLabel;html=1;align=center;verticalAlign=middle;resizable=0;points=[];labelBackgroundColor=none;" parent="bkBwzWGdvT6vBUZLJ9nT-79" vertex="1" connectable="0">
                    <mxGeometry x="-0.6549" relative="1" as="geometry">
                        <mxPoint x="35" y="-1" as="offset"/>
                    </mxGeometry>
                </mxCell>
                <mxCell id="bkBwzWGdvT6vBUZLJ9nT-34" value="&lt;font style=&quot;font-size: 48px;&quot; face=&quot;Times New Roman&quot;&gt;Exist blocked&lt;br style=&quot;border-color: var(--border-color);&quot;&gt;coroutine?&lt;/font&gt;" style="rhombus;whiteSpace=wrap;html=1;strokeWidth=2;" parent="WIyWlLk6GJQsqaUBKTNV-1" vertex="1">
                    <mxGeometry x="1870" y="1020" width="485" height="212.75" as="geometry"/>
                </mxCell>
                <mxCell id="bkBwzWGdvT6vBUZLJ9nT-41" style="edgeStyle=orthogonalEdgeStyle;rounded=0;orthogonalLoop=1;jettySize=auto;html=1;exitX=0.5;exitY=1;exitDx=0;exitDy=0;entryX=0.5;entryY=0;entryDx=0;entryDy=0;strokeWidth=2;" parent="WIyWlLk6GJQsqaUBKTNV-1" source="bkBwzWGdvT6vBUZLJ9nT-35" target="bkBwzWGdvT6vBUZLJ9nT-34" edge="1">
                    <mxGeometry relative="1" as="geometry"/>
                </mxCell>
                <mxCell id="bkBwzWGdvT6vBUZLJ9nT-86" value="&lt;font style=&quot;font-size: 48px;&quot; face=&quot;Times New Roman&quot;&gt;No&lt;/font&gt;" style="edgeLabel;html=1;align=center;verticalAlign=middle;resizable=0;points=[];labelBackgroundColor=none;" parent="bkBwzWGdvT6vBUZLJ9nT-41" vertex="1" connectable="0">
                    <mxGeometry x="-0.3757" y="5" relative="1" as="geometry">
                        <mxPoint x="33" y="12" as="offset"/>
                    </mxGeometry>
                </mxCell>
                <mxCell id="bkBwzWGdvT6vBUZLJ9nT-76" style="edgeStyle=orthogonalEdgeStyle;rounded=0;orthogonalLoop=1;jettySize=auto;html=1;exitX=1;exitY=0.5;exitDx=0;exitDy=0;entryX=0.5;entryY=1;entryDx=0;entryDy=0;strokeWidth=2;" parent="WIyWlLk6GJQsqaUBKTNV-1" source="bkBwzWGdvT6vBUZLJ9nT-35" target="bkBwzWGdvT6vBUZLJ9nT-51" edge="1">
                    <mxGeometry relative="1" as="geometry"/>
                </mxCell>
                <mxCell id="bkBwzWGdvT6vBUZLJ9nT-80" value="&lt;font style=&quot;font-size: 48px;&quot; face=&quot;Times New Roman&quot;&gt;Yes&lt;/font&gt;" style="edgeLabel;html=1;align=center;verticalAlign=middle;resizable=0;points=[];labelBackgroundColor=none;" parent="bkBwzWGdvT6vBUZLJ9nT-76" vertex="1" connectable="0">
                    <mxGeometry x="-0.1553" y="-4" relative="1" as="geometry">
                        <mxPoint x="31" y="1" as="offset"/>
                    </mxGeometry>
                </mxCell>
                <mxCell id="bkBwzWGdvT6vBUZLJ9nT-35" value="&lt;font face=&quot;Times New Roman&quot;&gt;&lt;span style=&quot;font-size: 48px;&quot;&gt;In kernel?&lt;/span&gt;&lt;/font&gt;" style="rhombus;whiteSpace=wrap;html=1;strokeWidth=2;" parent="WIyWlLk6GJQsqaUBKTNV-1" vertex="1">
                    <mxGeometry x="1870" y="703" width="485" height="212.75" as="geometry"/>
                </mxCell>
                <mxCell id="bkBwzWGdvT6vBUZLJ9nT-55" style="edgeStyle=orthogonalEdgeStyle;rounded=0;orthogonalLoop=1;jettySize=auto;html=1;exitX=0;exitY=0.5;exitDx=0;exitDy=0;entryX=0.5;entryY=0;entryDx=0;entryDy=0;strokeWidth=2;" parent="WIyWlLk6GJQsqaUBKTNV-1" source="bkBwzWGdvT6vBUZLJ9nT-36" target="bkBwzWGdvT6vBUZLJ9nT-14" edge="1">
                    <mxGeometry relative="1" as="geometry"/>
                </mxCell>
                <mxCell id="bkBwzWGdvT6vBUZLJ9nT-81" value="&lt;font style=&quot;font-size: 48px;&quot; face=&quot;Times New Roman&quot;&gt;Yes&lt;/font&gt;" style="edgeLabel;html=1;align=center;verticalAlign=middle;resizable=0;points=[];labelBackgroundColor=none;" parent="bkBwzWGdvT6vBUZLJ9nT-55" vertex="1" connectable="0">
                    <mxGeometry x="-0.2645" y="-4" relative="1" as="geometry">
                        <mxPoint x="-10" y="-27" as="offset"/>
                    </mxGeometry>
                </mxCell>
                <mxCell id="bkBwzWGdvT6vBUZLJ9nT-56" style="edgeStyle=orthogonalEdgeStyle;rounded=0;orthogonalLoop=1;jettySize=auto;html=1;exitX=1;exitY=0.5;exitDx=0;exitDy=0;entryX=0.5;entryY=0;entryDx=0;entryDy=0;strokeWidth=2;" parent="WIyWlLk6GJQsqaUBKTNV-1" source="bkBwzWGdvT6vBUZLJ9nT-36" target="bkBwzWGdvT6vBUZLJ9nT-35" edge="1">
                    <mxGeometry relative="1" as="geometry"/>
                </mxCell>
                <mxCell id="bkBwzWGdvT6vBUZLJ9nT-82" value="&lt;font style=&quot;font-size: 48px;&quot; face=&quot;Times New Roman&quot;&gt;No&lt;/font&gt;" style="edgeLabel;html=1;align=center;verticalAlign=middle;resizable=0;points=[];labelBackgroundColor=none;" parent="bkBwzWGdvT6vBUZLJ9nT-56" vertex="1" connectable="0">
                    <mxGeometry x="-0.2684" y="6" relative="1" as="geometry">
                        <mxPoint x="32" y="-107" as="offset"/>
                    </mxGeometry>
                </mxCell>
                <mxCell id="bkBwzWGdvT6vBUZLJ9nT-36" value="&lt;font style=&quot;font-size: 48px;&quot; face=&quot;Times New Roman&quot;&gt;Exist ready&lt;br style=&quot;border-color: var(--border-color);&quot;&gt;&lt;span style=&quot;&quot;&gt;coroutine?&lt;/span&gt;&lt;/font&gt;" style="rhombus;whiteSpace=wrap;html=1;strokeWidth=2;" parent="WIyWlLk6GJQsqaUBKTNV-1" vertex="1">
                    <mxGeometry x="1587.5" y="375" width="485" height="212.75" as="geometry"/>
                </mxCell>
                <mxCell id="bkBwzWGdvT6vBUZLJ9nT-46" style="edgeStyle=orthogonalEdgeStyle;rounded=0;orthogonalLoop=1;jettySize=auto;html=1;exitX=0.5;exitY=1;exitDx=0;exitDy=0;entryX=0.5;entryY=0;entryDx=0;entryDy=0;strokeWidth=2;" parent="WIyWlLk6GJQsqaUBKTNV-1" source="bkBwzWGdvT6vBUZLJ9nT-37" target="bkBwzWGdvT6vBUZLJ9nT-22" edge="1">
                    <mxGeometry relative="1" as="geometry"/>
                </mxCell>
                <mxCell id="bkBwzWGdvT6vBUZLJ9nT-84" value="&lt;font style=&quot;font-size: 48px;&quot; face=&quot;Times New Roman&quot;&gt;Yes&lt;/font&gt;" style="edgeLabel;html=1;align=center;verticalAlign=middle;resizable=0;points=[];labelBackgroundColor=none;" parent="bkBwzWGdvT6vBUZLJ9nT-46" vertex="1" connectable="0">
                    <mxGeometry x="-0.4268" y="6" relative="1" as="geometry">
                        <mxPoint x="-78" y="-3" as="offset"/>
                    </mxGeometry>
                </mxCell>
                <mxCell id="bkBwzWGdvT6vBUZLJ9nT-77" style="edgeStyle=orthogonalEdgeStyle;rounded=0;orthogonalLoop=1;jettySize=auto;html=1;exitX=1;exitY=0.5;exitDx=0;exitDy=0;entryX=0.5;entryY=0;entryDx=0;entryDy=0;strokeWidth=2;" parent="WIyWlLk6GJQsqaUBKTNV-1" source="bkBwzWGdvT6vBUZLJ9nT-37" target="bkBwzWGdvT6vBUZLJ9nT-38" edge="1">
                    <mxGeometry relative="1" as="geometry">
                        <Array as="points">
                            <mxPoint x="1735" y="766"/>
                            <mxPoint x="1735" y="1050"/>
                            <mxPoint x="1473" y="1050"/>
                        </Array>
                    </mxGeometry>
                </mxCell>
                <mxCell id="bkBwzWGdvT6vBUZLJ9nT-83" value="&lt;font style=&quot;font-size: 48px;&quot; face=&quot;Times New Roman&quot;&gt;No&lt;/font&gt;" style="edgeLabel;html=1;align=center;verticalAlign=middle;resizable=0;points=[];labelBackgroundColor=none;" parent="bkBwzWGdvT6vBUZLJ9nT-77" vertex="1" connectable="0">
                    <mxGeometry x="-0.5319" y="4" relative="1" as="geometry">
                        <mxPoint x="31" as="offset"/>
                    </mxGeometry>
                </mxCell>
                <mxCell id="bkBwzWGdvT6vBUZLJ9nT-37" value="&lt;font face=&quot;Times New Roman&quot;&gt;&lt;span style=&quot;font-size: 48px;&quot;&gt;Completed?&lt;/span&gt;&lt;/font&gt;" style="rhombus;whiteSpace=wrap;html=1;strokeWidth=2;" parent="WIyWlLk6GJQsqaUBKTNV-1" vertex="1">
                    <mxGeometry x="1230" y="660" width="485" height="212.75" as="geometry"/>
                </mxCell>
                <mxCell id="bkBwzWGdvT6vBUZLJ9nT-69" style="edgeStyle=orthogonalEdgeStyle;rounded=0;orthogonalLoop=1;jettySize=auto;html=1;exitX=0.5;exitY=1;exitDx=0;exitDy=0;entryX=0.5;entryY=0;entryDx=0;entryDy=0;strokeWidth=2;" parent="WIyWlLk6GJQsqaUBKTNV-1" source="bkBwzWGdvT6vBUZLJ9nT-38" target="bkBwzWGdvT6vBUZLJ9nT-29" edge="1">
                    <mxGeometry relative="1" as="geometry">
                        <Array as="points">
                            <mxPoint x="1473" y="1320"/>
                            <mxPoint x="1830" y="1320"/>
                        </Array>
                    </mxGeometry>
                </mxCell>
                <mxCell id="bkBwzWGdvT6vBUZLJ9nT-85" value="&lt;font style=&quot;font-size: 48px;&quot; face=&quot;Times New Roman&quot;&gt;Yes&lt;/font&gt;" style="edgeLabel;html=1;align=center;verticalAlign=middle;resizable=0;points=[];labelBackgroundColor=none;" parent="bkBwzWGdvT6vBUZLJ9nT-69" vertex="1" connectable="0">
                    <mxGeometry x="-0.3716" y="-4" relative="1" as="geometry">
                        <mxPoint x="-75" y="26" as="offset"/>
                    </mxGeometry>
                </mxCell>
                <mxCell id="bkBwzWGdvT6vBUZLJ9nT-74" style="edgeStyle=orthogonalEdgeStyle;rounded=0;orthogonalLoop=1;jettySize=auto;html=1;exitX=0;exitY=0.5;exitDx=0;exitDy=0;entryX=0.5;entryY=0;entryDx=0;entryDy=0;strokeWidth=2;" parent="WIyWlLk6GJQsqaUBKTNV-1" source="bkBwzWGdvT6vBUZLJ9nT-38" target="bkBwzWGdvT6vBUZLJ9nT-36" edge="1">
                    <mxGeometry relative="1" as="geometry"/>
                </mxCell>
                <mxCell id="bkBwzWGdvT6vBUZLJ9nT-89" value="&lt;font style=&quot;font-size: 48px;&quot; face=&quot;Times New Roman&quot;&gt;No&lt;/font&gt;" style="edgeLabel;html=1;align=center;verticalAlign=middle;resizable=0;points=[];labelBackgroundColor=none;" parent="bkBwzWGdvT6vBUZLJ9nT-74" vertex="1" connectable="0">
                    <mxGeometry x="-0.8538" y="4" relative="1" as="geometry">
                        <mxPoint x="-26" y="1" as="offset"/>
                    </mxGeometry>
                </mxCell>
                <mxCell id="bkBwzWGdvT6vBUZLJ9nT-38" value="&lt;font face=&quot;Times New Roman&quot;&gt;&lt;span style=&quot;font-size: 48px;&quot;&gt;Should yield?&lt;/span&gt;&lt;/font&gt;" style="rhombus;whiteSpace=wrap;html=1;strokeWidth=2;" parent="WIyWlLk6GJQsqaUBKTNV-1" vertex="1">
                    <mxGeometry x="1230" y="1080" width="485" height="212.75" as="geometry"/>
                </mxCell>
                <mxCell id="bkBwzWGdvT6vBUZLJ9nT-49" value="&lt;font face=&quot;Times New Roman&quot; style=&quot;font-size: 48px;&quot;&gt;Exit&lt;/font&gt;" style="strokeWidth=2;html=1;shape=mxgraph.flowchart.terminator;whiteSpace=wrap;" parent="WIyWlLk6GJQsqaUBKTNV-1" vertex="1">
                    <mxGeometry x="1770" y="1550" width="120" height="70" as="geometry"/>
                </mxCell>
                <mxCell id="bkBwzWGdvT6vBUZLJ9nT-68" style="edgeStyle=orthogonalEdgeStyle;rounded=0;orthogonalLoop=1;jettySize=auto;html=1;exitX=0.5;exitY=0;exitDx=0;exitDy=0;entryX=0.5;entryY=0;entryDx=0;entryDy=0;strokeWidth=2;" parent="WIyWlLk6GJQsqaUBKTNV-1" source="bkBwzWGdvT6vBUZLJ9nT-51" target="bkBwzWGdvT6vBUZLJ9nT-36" edge="1">
                    <mxGeometry relative="1" as="geometry"/>
                </mxCell>
                <mxCell id="bkBwzWGdvT6vBUZLJ9nT-51" value="&lt;font style=&quot;font-size: 48px;&quot; face=&quot;Times New Roman&quot;&gt;Idle&lt;/font&gt;" style="whiteSpace=wrap;html=1;strokeWidth=2;" parent="WIyWlLk6GJQsqaUBKTNV-1" vertex="1">
                    <mxGeometry x="2280" y="520.13" width="190" height="59.87" as="geometry"/>
                </mxCell>
            </root>
        </mxGraphModel>
    </diagram>
</mxfile>